<?xml version="1.0" standalone="no"?>
        <!DOCTYPE svg PUBLIC "-//W3C//DTD SVG 1.1//EN" 
        "http://www.w3.org/Graphics/SVG/1.1/DTD/svg11.dtd"><svg id="changeColor " fill="#DC7633" xmlns="http://www.w3.org/2000/svg" xmlns:xlink="http://www.w3.org/1999/xlink" width="200" zoomAndPan="magnify" viewBox="0 0 375 374.9991" height="200" preserveAspectRatio="xMidYMid meet" version="1.0"> <defs><path id="pathAttribute" d="M 6.085938 32.035156 L 366.835938 32.035156 L 366.835938 344.785156 L 6.085938 344.785156 Z M 6.085938 32.035156 " fill="#ffffff"></path></defs><g><path id="pathAttribute" d="M 347.429688 64.941406 L 205.863281 33.796875 C 195.207031 31.449219 177.714844 31.449219 167.054688 33.796875 L 25.488281 64.941406 C 14.832031 67.292969 6.085938 78.160156 6.085938 89.105469 L 6.085938 286.464844 C 6.085938 297.628906 14.832031 308.71875 25.488281 311.140625 L 167.054688 343.019531 C 177.714844 345.441406 195.207031 345.441406 205.863281 343.019531 L 347.429688 311.140625 C 358.089844 308.71875 366.835938 297.628906 366.835938 286.464844 L 366.835938 89.105469 C 366.835938 78.160156 358.089844 67.292969 347.429688 64.941406 " fill-opacity="1" fill-rule="nonzero" fill="#ffffff"></path></g><g id="inner-icon" transform="translate(80,80) "> <svg xmlns="http://www.w3.org/2000/svg" width="200" height="200" fill="currentColor" class="bi bi-facebook" viewBox="0 0 16 16" id="IconChangeColor"> <path d="M16 8.049c0-4.446-3.582-8.05-8-8.05C3.58 0-.002 3.603-.002 8.05c0 4.017 2.926 7.347 6.75 7.951v-5.625h-2.03V8.05H6.75V6.275c0-2.017 1.195-3.131 3.022-3.131.876 0 1.791.157 1.791.157v1.98h-1.009c-.993 0-1.303.621-1.303 1.258v1.51h2.218l-.354 2.326H9.25V16c3.824-.604 6.75-3.934 6.75-7.951z" id="mainIconPathAttribute" fill="blue"></path> </svg> </g></svg>